Coordinates
version=1
nRows=4
nColumns=63
inDegrees=yes

Units are S.I. units (second, meters, Newtons, ...)
If the header above contains a line with 'inDegrees', this indicates whether rotational values are in degrees (yes) or radians (no).

endheader
time	pelvis_tilt	pelvis_list	pelvis_rotation	pelvis_tx	pelvis_ty	pelvis_tz	hip_flexion_r	hip_adduction_r	hip_rotation_r	knee_angle_r	knee_angle_r_beta	ankle_angle_r	subtalar_angle_r	mtp_angle_r	hip_flexion_l	hip_adduction_l	hip_rotation_l	knee_angle_l	knee_angle_l_beta	ankle_angle_l	subtalar_angle_l	mtp_angle_l	L5_S1_Flex_Ext	L5_S1_Lat_Bending	L5_S1_axial_rotation	L4_L5_Flex_Ext	L4_L5_Lat_Bending	L4_L5_axial_rotation	L3_L4_Flex_Ext	L3_L4_Lat_Bending	L3_L4_axial_rotation	L2_L3_Flex_Ext	L2_L3_Lat_Bending	L2_L3_axial_rotation	L1_L2_Flex_Ext	L1_L2_Lat_Bending	L1_L2_axial_rotation	L1_T12_Flex_Ext	L1_T12_Lat_Bending	L1_T12_axial_rotation	Abs_r3	Abs_r2	Abs_r1	Abs_t1	Abs_t2	neck_flexion	neck_bending	neck_rotation	arm_flex_r	arm_add_r	arm_rot_r	elbow_flex_r	pro_sup_r	wrist_flex_r	wrist_dev_r	arm_flex_l	arm_add_l	arm_rot_l	elbow_flex_l	pro_sup_l	wrist_flex_l	wrist_dev_l
      7.50000000	    -49.59963493	     -1.51789513	     -0.44311153	     -0.35496124	      0.98360356	      0.02601141	    113.61815788	     -9.12429103	      1.83352381	    108.69354569	      1.89706025	      3.34900101	     -2.41670196	      0.00000000	    107.55744398	     -6.03256858	      1.61021551	     61.98634203	      1.08186576	      0.10353024	      6.60716015	      0.00000000	     -0.08669797	      0.13540882	      0.39602427	     -0.16100679	      0.18009373	      0.42077578	     -0.14243609	      0.32923301	      0.42077578	     -0.09908710	      0.32923301	      0.34652123	     -0.08050773	      0.27612567	      0.32176972	     -0.04953922	      0.20974827	      0.29701820	     -0.61927490	      1.53177169	      2.20256816	      0.00000000	      0.00000000	     -0.00000000	      0.00000000	      0.00000000	     66.07151085	    -10.10134930	      5.76332037	     37.01177736	     21.21719921	      0.00000000	      5.00000014	     68.80803235	     -5.13239740	     10.77822001	     31.88808765	     26.68292203	      0.00000000	      5.00000014
      7.50800000	    -49.53213335	     -2.02695199	     -1.03753678	     -0.35486560	      0.98304748	      0.02608749	    115.53088796	     -8.80948509	      1.63413196	    110.91935311	      1.93590792	      4.17297227	     -2.36701922	      0.00000000	    105.79565879	     -6.53857880	      1.98392431	     60.15437603	      1.04989192	     -0.66956104	      6.56370719	      0.00000000	     -0.08750141	      0.22718552	      0.49887221	     -0.16249886	      0.30215675	      0.53005172	     -0.14375606	      0.55237888	      0.53005172	     -0.10000536	      0.55237888	      0.43651318	     -0.08125381	      0.46327672	      0.40533367	     -0.04999830	      0.35191038	      0.37415416	     -0.62501380	      2.56996808	      2.77457758	      0.00000000	      0.00000000	     -0.00000000	      0.00000000	      0.00000000	     66.27201890	    -10.15589742	      6.03669139	     37.06269047	     21.34184964	      0.00000000	      5.00000014	     68.54920368	     -5.11399578	     10.57698143	     31.94650273	     26.70416870	      0.00000000	      5.00000014
      7.51700000	    -49.48054655	     -2.47381423	     -1.54600226	     -0.35462671	      0.98259680	      0.02621283	    117.47415798	     -8.57213646	      1.46241859	    112.96315659	      1.97157902	      5.08884643	     -2.38192341	      0.00000000	    104.09762269	     -7.01322654	      2.29596428	     58.51728464	      1.02131929	     -1.32606230	      6.48112193	      0.00000000	     -0.08582330	      0.30899636	      0.58054514	     -0.15938244	      0.41096516	      0.61682921	     -0.14099909	      0.75129374	      0.61682921	     -0.09808745	      0.75129374	      0.50797700	     -0.07969551	      0.63010537	      0.47169293	     -0.04903943	      0.47863536	      0.43540885	     -0.61302723	      3.49542859	      3.22881790	      0.00000000	      0.00000000	     -0.00000000	      0.00000000	      0.00000000	     66.43090398	    -10.18593365	      6.36629751	     37.06798507	     21.47211477	      0.00000000	      5.00000014	     68.26716475	     -5.14278237	     10.37474630	     31.97453830	     26.72682610	      0.00000000	      5.00000014
      7.52500000	    -49.45445377	     -2.68665871	     -1.69004879	     -0.35453037	      0.98231465	      0.02605035	    119.51434169	     -8.63220966	      1.68853173	    114.85827196	      2.00465502	      6.81865123	     -1.39254941	      0.00000000	    102.38513688	     -7.15923820	      2.34366091	     56.91136391	      0.99329068	     -2.05436673	      6.09913796	      0.00000000	     -0.08632253	      0.35514012	      0.56921968	     -0.16030956	      0.47233636	      0.60479591	     -0.14181928	      0.86348769	      0.60479591	     -0.09865801	      0.86348769	      0.49806722	     -0.08015910	      0.72420174	      0.46249099	     -0.04932469	      0.55011205	      0.42691476	     -0.61659316	      4.01741608	      3.16582911	      0.00000000	      0.00000000	     -0.00000000	      0.00000000	      0.00000000	     66.81505268	    -10.45649165	      8.45284210	     36.79546091	     21.68311717	      0.00000000	      5.00000014	     67.97471552	     -5.11123806	      9.00675402	     32.16303649	     26.42002491	      0.00000000	      5.00000014
